<?xml version="1.0" standalone="no"?>
<!DOCTYPE svg PUBLIC "-//W3C//DTD SVG 1.1//EN" "http://www.w3.org/Graphics/SVG/1.1/DTD/svg11.dtd">
<!--Generator: Xara Designer (www.xara.com), SVG filter version: 5.0.0.2-->
<svg stroke-width="0.501" stroke-linejoin="bevel" fill-rule="evenodd" xmlns:xlink="http://www.w3.org/1999/xlink" xmlns="http://www.w3.org/2000/svg" version="1.1" overflow="visible" width="960pt" height="540pt" viewBox="0 0 960 540">
 <defs>
  <marker id="DefaultArrow2" markerUnits="strokeWidth" viewBox="0 0 1 1" markerWidth="1" markerHeight="1" overflow="visible" orient="auto">
   <!-- REF_ARROW_STRAIGHT (-2) -->
   <g transform="scale(0.0092592592)">
    <!-- 1/108 -->
    <path d="M -9 54 L -9 -54 L 117 0 z"/>
   </g>
  </marker>
  <marker id="DefaultArrow3" markerUnits="strokeWidth" viewBox="0 0 1 1" markerWidth="1" markerHeight="1" overflow="visible" orient="auto">
   <!-- REF_ARROW_ANGLED -->
   <g transform="scale(0.0092592592)">
    <path d="M -27 54 L -9 0 L -27 -54 L 135 0 z"/>
   </g>
  </marker>
  <marker id="DefaultArrow4" markerUnits="strokeWidth" viewBox="0 0 1 1" markerWidth="1" markerHeight="1" overflow="visible" orient="auto">
   <!-- REF_ARROW_ROUNDED -->
   <g transform="scale(0.0092592592)">
    <path d="M -9,0 L -9,-45 C -9,-51.708 2.808,-56.580 9,-54 L 117,-9 C 120.916,-7.369 126.000,-4.242 126,0 C 126,4.242 120.916,7.369 117,9 L 9,54 C 2.808,56.580 -9,51.708 -9,45 z"/>
   </g>
  </marker>
  <marker id="DefaultArrow5" markerUnits="strokeWidth" viewBox="0 0 1 1" markerWidth="1" markerHeight="1" overflow="visible" orient="auto">
   <!-- REF_ARROW_SPOT -->
   <g transform="scale(0.0092592592)">
    <path d="M -54, 0 C -54,29.807 -29.807,54 0,54 C 29.807,54 54,29.807 54,0 C 54,-29.807 29.807,-54 0,-54 C -29.807,-54 -54,-29.807 -54,0 z"/>
   </g>
  </marker>
  <marker id="DefaultArrow6" markerUnits="strokeWidth" viewBox="0 0 1 1" markerWidth="1" markerHeight="1" overflow="visible" orient="auto">
   <!-- REF_ARROW_DIAMOND -->
   <g transform="scale(0.0092592592)">
    <path d="M -63,0 L 0,63 L 63,0 L 0,-63 z"/>
   </g>
  </marker>
  <marker id="DefaultArrow7" markerUnits="strokeWidth" viewBox="0 0 1 1" markerWidth="1" markerHeight="1" overflow="visible" orient="auto">
   <!-- REF_ARROW_FEATHER -->
   <g transform="scale(0.0092592592)">
    <path d="M 18,-54 L 108,-54 L 63,0 L 108,54 L 18, 54 L -36,0 z"/>
   </g>
  </marker>
  <marker id="DefaultArrow8" markerUnits="strokeWidth" viewBox="0 0 1 1" markerWidth="1" markerHeight="1" overflow="visible" orient="auto">
   <!-- REF_ARROW_FEATHER2 -->
   <g transform="scale(0.0092592592)">
    <path d="M -36,0 L 18,-54 L 54,-54 L 18,-18 L 27,-18 L 63,-54 L 99,-54 L 63,-18 L 72,-18 L 108,-54 L 144,-54 L 90,0 L 144,54 L 108,54 L 72,18 L 63,18 L 99,54 L 63,54 L 27,18 L 18,18 L 54,54 L 18,54 z"/>
   </g>
  </marker>
  <marker id="DefaultArrow9" markerUnits="strokeWidth" viewBox="0 0 1 1" markerWidth="1" markerHeight="1" overflow="visible" orient="auto">
   <!-- REF_ARROW_HOLLOWDIAMOND -->
   <g transform="scale(0.0092592592)">
    <path d="M 0,45 L -45,0 L 0, -45 L 45, 0 z M 0, 63 L-63, 0 L 0, -63 L 63, 0 z"/>
   </g>
  </marker>
  <filter id="StainedFilter">
   <feBlend mode="multiply" in2="BackgroundImage" in="SourceGraphic" result="blend"/>
   <feComposite in="blend" in2="SourceAlpha" operator="in" result="comp"/>
  </filter>
  <filter id="BleachFilter">
   <feBlend mode="screen" in2="BackgroundImage" in="SourceGraphic" result="blend"/>
   <feComposite in="blend" in2="SourceAlpha" operator="in" result="comp"/>
  </filter>
  <filter id="InvertTransparencyBitmapFilter">
   <feComponentTransfer>
    <feFuncR type="gamma" amplitude="1.055" exponent=".416666666" offset="-0.055"/>
    <feFuncG type="gamma" amplitude="1.055" exponent=".416666666" offset="-0.055"/>
    <feFuncB type="gamma" amplitude="1.055" exponent=".416666666" offset="-0.055"/>
   </feComponentTransfer>
   <feComponentTransfer>
    <feFuncR type="linear" slope="-1" intercept="1"/>
    <feFuncG type="linear" slope="-1" intercept="1"/>
    <feFuncB type="linear" slope="-1" intercept="1"/>
    <feFuncA type="linear" slope="1" intercept="0"/>
   </feComponentTransfer>
   <feComponentTransfer>
    <feFuncR type="gamma" amplitude="1" exponent="2.4" offset="0"/>
    <feFuncG type="gamma" amplitude="1" exponent="2.4" offset="0"/>
    <feFuncB type="gamma" amplitude="1" exponent="2.4" offset="0"/>
   </feComponentTransfer>
  </filter>
 </defs>
 <g id="Document" fill="none" stroke="black" font-family="Times New Roman" font-size="16" transform="scale(1 -1)">
  <g id="Spread" transform="translate(0 -540)">
   <g id="Layer 1">
    <g id="Group" stroke-linejoin="round" stroke-linecap="round" stroke="none">
     <path d="M 188.546,307.686 C 186.762,308.399 186.038,311.61 189.616,311.61 C 190.508,311.61 190.857,311.104 189.616,310.897 C 188.546,310.718 188.189,310.005 188.368,309.47 C 189.042,308.2 191.579,308.578 192.649,310.005 C 193.167,311.057 192.47,312.732 190.865,313.038 C 187.119,313.751 184.751,309.546 177.486,311.967 C 174.81,312.859 172.313,316.07 174.632,321.6 C 173.205,320.708 170.41,320.061 168.21,319.816 C 163.393,319.281 157.03,319.935 156.656,326.709 C 156.436,330.698 159.826,333.017 161.609,333.374 C 165.513,334.154 168.036,332.086 167.318,328.736 C 166.783,326.238 161.788,325.884 161.788,328.557 C 161.788,329.449 163.037,330.698 164.107,330.163 C 164.313,329.949 164.452,329.669 163.572,329.449 C 162.858,329.271 162.68,329.092 162.858,328.557 C 163.326,327.721 165.356,328.022 165.712,328.914 C 166.142,329.972 165.712,331.59 163.572,331.59 C 161.469,331.664 158.755,329.628 159.29,326.952 C 159.95,324.011 164.285,323.206 167.675,323.562 C 169.442,323.526 171.599,324.454 172.67,325.346 C 172.819,325.61 172.973,325.837 172.491,326.238 C 170.351,328.022 168.421,330.174 167.853,332.303 C 167.14,334.979 168.004,337.817 168.388,340.509 C 168.567,341.758 168.919,345.326 165.712,345.326 C 164.107,345.326 163.41,342.206 165.534,342.472 C 166.961,342.65 167.026,342.205 166.604,341.936 C 165.636,341.319 163.592,341.421 163.037,342.293 C 161.788,344.256 163.215,346.218 164.82,346.753 C 167.192,347.412 170.934,346.385 170.707,342.293 C 170.529,339.082 169.44,336.568 171.064,333.552 C 172.296,331.263 175.962,330.365 176.229,331.371 C 176.01,333.093 171.778,334.591 171.778,340.153 C 171.778,345.076 175.774,349.072 180.697,349.072 C 185.62,349.072 189.616,345.076 189.616,340.153 C 189.616,339.876 189.604,339.602 189.579,339.332 C 189.193,334.427 185.356,332.999 185.158,331.36 C 185.298,330.826 187.196,330.603 188.011,331.055 C 189.616,331.944 190.219,333.543 190.33,336.05 C 190.475,339.317 187.946,343.844 190.687,346.931 C 193.184,349.25 196.477,349.319 198.536,347.467 C 200.32,345.861 200.141,342.293 197.287,341.758 C 195.408,341.406 192.827,344.077 195.503,345.326 C 196.038,345.504 195.532,344.349 195.682,343.899 C 195.86,343.364 196.395,342.828 197.287,343.364 C 198.05,343.84 198.63,345.076 197.644,346.039 C 195.734,347.906 192.689,346.421 191.936,344.612 C 191.044,342.472 193.053,339.736 193.541,337.298 C 194.076,334.623 194.088,329.585 190.152,326.773 C 188.903,325.882 185.514,325.168 187.833,322.314 C 189.442,320.24 195.001,321.249 195.503,324.098 C 196.038,327.13 194.259,328.052 194.79,331.768 C 195.147,334.266 196.079,336.729 200.498,336.05 C 202.817,335.693 204.125,332.987 203.352,331.055 C 202.996,330.163 201.568,329.449 200.32,329.449 C 199.963,329.449 199.356,329.96 199.963,330.163 C 201.033,330.52 201.799,331.065 201.925,331.947 C 202.104,333.195 200.636,335.066 198.714,334.266 C 196.574,333.374 197.126,330.993 197.822,328.557 C 199.265,323.513 197.822,320.173 194.968,318.568 C 191.274,316.49 184.081,317.003 182.303,319.816 C 181.592,320.94 180.17,320.523 179.627,319.816 C 178.502,318.352 178.051,316.266 181.054,314.465 C 182.838,313.394 186.526,315.017 189.26,315.178 C 192.292,315.357 195.545,314.065 194.79,310.54 C 194.255,308.043 190.85,306.764 188.546,307.686 Z M 184.469,339.227 C 184.469,339.917 183.909,340.476 183.22,340.476 C 182.531,340.476 181.971,339.917 181.971,339.227 C 181.971,338.538 182.531,337.979 183.22,337.979 C 183.909,337.979 184.469,338.538 184.469,339.227 Z" stroke-width="0.178" fill="#00a0d6" marker-start="none" marker-end="none" stroke-miterlimit="79.8403193612775"/>
     <path d="M 177.129,339.763 C 177.129,340.649 177.849,341.368 178.735,341.368 C 179.621,341.368 180.34,340.649 180.34,339.763 C 180.34,338.876 179.621,338.157 178.735,338.157 C 177.849,338.157 177.129,338.876 177.129,339.763 Z" stroke-width="0.093" fill="#ffffff" marker-start="none" marker-end="none" stroke-miterlimit="79.8403193612775"/>
     <g id="Group_1" fill-rule="nonzero" stroke-width="0.889" fill="#00a0d6" stroke-miterlimit="79.8403193612775">
      <g id="Group_2">
       <path d="M 209.679,319.883 L 210.841,323.006 C 212.68,321.803 214.161,321.202 215.283,321.202 C 217.319,321.202 218.337,322.058 218.337,323.77 C 218.337,324.996 217.354,326.049 215.388,326.928 C 213.872,327.622 212.851,328.148 212.325,328.507 C 211.798,328.865 211.341,329.273 210.954,329.73 C 210.567,330.187 210.277,330.673 210.086,331.188 C 209.896,331.703 209.801,332.255 209.8,332.845 C 209.801,334.372 210.356,335.563 211.466,336.419 C 212.577,337.275 214.028,337.703 215.821,337.703 C 217.175,337.703 218.881,337.275 220.94,336.419 L 220.003,333.365 C 218.695,334.406 217.382,334.927 216.064,334.927 C 215.277,334.927 214.615,334.742 214.077,334.371 C 213.539,334.001 213.271,333.533 213.271,332.966 C 213.271,331.775 213.947,330.873 215.301,330.259 L 217.66,329.184 C 219.106,328.524 220.159,327.773 220.818,326.928 C 221.477,326.084 221.807,325.025 221.807,323.753 C 221.807,322.087 221.223,320.783 220.055,319.84 C 218.887,318.897 217.267,318.426 215.197,318.426 C 213.242,318.426 211.403,318.912 209.679,319.883 Z" marker-start="none" marker-end="none"/>
       <path d="M 240.928,327.744 L 227.533,327.744 C 227.533,325.569 228.129,323.897 229.32,322.729 C 230.373,321.711 231.726,321.202 233.38,321.202 C 235.266,321.202 236.839,321.751 238.1,322.851 L 239.488,320.473 C 238.979,319.964 238.198,319.525 237.146,319.154 C 235.827,318.669 234.358,318.426 232.738,318.426 C 230.402,318.426 228.418,319.218 226.787,320.803 C 224.971,322.549 224.063,324.898 224.063,327.848 C 224.063,330.913 224.994,333.371 226.856,335.222 C 228.522,336.876 230.495,337.703 232.773,337.703 C 235.422,337.703 237.498,336.957 239.002,335.465 C 240.46,334.03 241.188,332.128 241.188,329.756 C 241.188,329.027 241.101,328.357 240.928,327.744 Z M 232.929,334.927 C 231.46,334.927 230.228,334.452 229.234,333.504 C 228.285,332.602 227.747,331.48 227.62,330.138 L 237.909,330.138 C 237.909,331.468 237.493,332.579 236.66,333.469 C 235.746,334.441 234.503,334.927 232.929,334.927 Z" marker-start="none" marker-end="none"/>
       <path d="M 244.918,324.03 L 244.918,344.973 L 248.215,344.973 L 248.215,324.585 C 248.215,323.591 248.502,322.807 249.074,322.235 C 249.647,321.662 250.396,321.376 251.321,321.375 L 251.321,318.426 C 247.053,318.426 244.919,320.294 244.918,324.03 Z" marker-start="none" marker-end="none"/>
       <path d="M 270.789,327.744 L 257.394,327.744 C 257.394,325.569 257.99,323.897 259.181,322.729 C 260.234,321.711 261.587,321.202 263.241,321.202 C 265.127,321.202 266.7,321.751 267.961,322.851 L 269.349,320.473 C 268.84,319.964 268.059,319.525 267.007,319.154 C 265.688,318.669 264.219,318.426 262.599,318.426 C 260.263,318.426 258.279,319.218 256.648,320.803 C 254.832,322.549 253.924,324.898 253.924,327.848 C 253.924,330.913 254.855,333.371 256.717,335.222 C 258.383,336.876 260.356,337.703 262.634,337.703 C 265.283,337.703 267.359,336.957 268.863,335.465 C 270.321,334.03 271.049,332.128 271.049,329.756 C 271.049,329.027 270.962,328.357 270.789,327.744 Z M 262.79,334.927 C 261.321,334.927 260.089,334.452 259.095,333.504 C 258.146,332.602 257.608,331.48 257.481,330.138 L 267.77,330.138 C 267.77,331.468 267.354,332.579 266.521,333.469 C 265.607,334.441 264.364,334.927 262.79,334.927 Z" marker-start="none" marker-end="none"/>
       <path d="M 288.539,335.847 L 286.908,333.521 C 286.573,333.857 285.98,334.175 285.13,334.476 C 284.279,334.776 283.444,334.927 282.622,334.927 C 280.83,334.927 279.407,334.299 278.354,333.044 C 277.301,331.789 276.775,330.068 276.775,327.882 C 276.775,325.707 277.313,324.05 278.389,322.911 C 279.464,321.772 280.957,321.202 282.865,321.202 C 284.346,321.202 285.838,321.775 287.342,322.92 L 288.643,320.143 C 286.873,318.998 284.681,318.426 282.067,318.426 C 279.534,318.426 277.441,319.276 275.786,320.977 C 274.132,322.677 273.305,324.979 273.305,327.882 C 273.305,330.844 274.163,333.221 275.881,335.013 C 277.599,336.807 279.95,337.703 282.935,337.703 C 283.895,337.703 284.936,337.5 286.058,337.096 C 287.18,336.691 288.007,336.274 288.539,335.847 Z" marker-start="none" marker-end="none"/>
       <path d="M 293.293,334.753 L 291.142,334.753 L 291.142,337.356 L 293.293,337.356 L 293.293,341.243 L 296.59,342.509 L 296.59,337.356 L 301.691,337.356 L 301.691,334.753 L 296.59,334.753 L 296.59,325.523 C 296.59,323.961 296.853,322.851 297.379,322.191 C 297.906,321.532 298.753,321.202 299.921,321.202 C 300.766,321.202 301.639,321.416 302.541,321.844 L 303.027,318.947 C 301.662,318.599 300.165,318.426 298.533,318.426 C 297.064,318.426 295.823,318.972 294.812,320.065 C 293.799,321.159 293.293,322.538 293.293,324.204 L 293.293,334.753 Z" marker-start="none" marker-end="none"/>
       <path d="M 304.988,328.108 C 304.988,330.977 305.76,333.293 307.304,335.057 C 308.848,336.821 310.881,337.703 313.403,337.703 C 316.063,337.703 318.128,336.855 319.598,335.161 C 321.066,333.466 321.801,331.115 321.801,328.108 C 321.801,325.112 321.049,322.749 319.545,321.02 C 318.042,319.291 315.994,318.426 313.403,318.426 C 310.754,318.426 308.689,319.299 307.209,321.046 C 305.728,322.792 304.988,325.147 304.988,328.108 Z M 308.458,328.108 C 308.458,323.446 310.106,321.115 313.403,321.115 C 314.942,321.115 316.148,321.74 317.021,322.989 C 317.894,324.239 318.331,325.945 318.331,328.108 C 318.331,332.712 316.688,335.014 313.403,335.013 C 311.899,335.014 310.699,334.401 309.803,333.175 C 308.906,331.949 308.458,330.26 308.458,328.108 Z" marker-start="none" marker-end="none"/>
       <path d="M 328.568,319.796 L 328.568,311.485 L 325.271,311.485 L 325.271,337.356 L 328.568,337.356 L 328.568,335.829 C 329.817,337.078 331.327,337.703 333.097,337.703 C 335.734,337.703 337.787,336.882 339.256,335.239 C 340.725,333.596 341.46,331.19 341.46,328.021 C 341.46,325.198 340.72,322.893 339.239,321.107 C 337.758,319.319 335.618,318.426 332.819,318.426 C 332.033,318.426 331.191,318.565 330.295,318.842 C 329.398,319.12 328.823,319.438 328.568,319.796 Z M 328.568,333.348 L 328.568,322.521 C 328.776,322.208 329.216,321.911 329.887,321.627 C 330.558,321.344 331.211,321.202 331.847,321.202 C 335.942,321.202 337.99,323.515 337.99,328.142 C 337.99,330.491 337.504,332.209 336.533,333.296 C 335.561,334.383 334.005,334.927 331.865,334.927 C 331.402,334.927 330.836,334.765 330.164,334.441 C 329.494,334.117 328.962,333.753 328.568,333.348 Z" marker-start="none" marker-end="none"/>
       <path d="M 348.191,337.356 L 348.191,325.505 C 348.191,322.636 349.435,321.202 351.922,321.202 C 353.009,321.202 354.004,321.514 354.907,322.139 C 355.809,322.764 356.405,323.487 356.694,324.308 L 356.694,337.356 L 359.99,337.356 L 359.99,318.773 L 356.694,318.773 L 356.694,321.341 C 356.324,320.612 355.58,319.944 354.464,319.337 C 353.348,318.729 352.258,318.426 351.193,318.426 C 349.158,318.426 347.599,319.01 346.517,320.178 C 345.436,321.347 344.895,323.007 344.895,325.158 L 344.895,337.356 L 348.191,337.356 Z" marker-start="none" marker-end="none"/>
       <path d="M 363.27,319.883 L 364.432,323.006 C 366.271,321.803 367.752,321.202 368.874,321.202 C 370.91,321.202 371.928,322.058 371.928,323.77 C 371.928,324.996 370.945,326.049 368.979,326.928 C 367.463,327.622 366.442,328.148 365.916,328.507 C 365.389,328.865 364.932,329.273 364.545,329.73 C 364.158,330.187 363.868,330.673 363.677,331.188 C 363.487,331.703 363.392,332.255 363.391,332.845 C 363.392,334.372 363.947,335.563 365.057,336.419 C 366.168,337.275 367.619,337.703 369.412,337.703 C 370.766,337.703 372.472,337.275 374.531,336.419 L 373.594,333.365 C 372.286,334.406 370.973,334.927 369.655,334.927 C 368.868,334.927 368.206,334.742 367.668,334.371 C 367.13,334.001 366.862,333.533 366.862,332.966 C 366.862,331.775 367.538,330.873 368.892,330.259 L 371.251,329.184 C 372.697,328.524 373.75,327.773 374.409,326.928 C 375.068,326.084 375.398,325.025 375.398,323.753 C 375.398,322.087 374.814,320.783 373.646,319.84 C 372.478,318.897 370.858,318.426 368.788,318.426 C 366.833,318.426 364.994,318.912 363.27,319.883 Z" marker-start="none" marker-end="none"/>
      </g>
     </g>
    </g>
   </g>
  </g>
 </g>
</svg>
