<?xml version="1.0" standalone="no"?>
<!DOCTYPE svg PUBLIC "-//W3C//DTD SVG 1.1//EN" "http://www.w3.org/Graphics/SVG/1.1/DTD/svg11.dtd">
<!--Generator: Xara Designer (www.xara.com), SVG filter version: 5.0.0.2-->
<svg stroke-width="0.501" stroke-linejoin="bevel" fill-rule="evenodd" xmlns:xlink="http://www.w3.org/1999/xlink" xmlns="http://www.w3.org/2000/svg" version="1.1" overflow="visible" width="225pt" height="42.75pt" viewBox="0 0 225 42.75">
 <defs>
  <marker id="DefaultArrow2" markerUnits="strokeWidth" viewBox="0 0 1 1" markerWidth="1" markerHeight="1" overflow="visible" orient="auto">
   <!-- REF_ARROW_STRAIGHT (-2) -->
   <g transform="scale(0.0092592592)">
    <!-- 1/108 -->
    <path d="M -9 54 L -9 -54 L 117 0 z"/>
   </g>
  </marker>
  <marker id="DefaultArrow3" markerUnits="strokeWidth" viewBox="0 0 1 1" markerWidth="1" markerHeight="1" overflow="visible" orient="auto">
   <!-- REF_ARROW_ANGLED -->
   <g transform="scale(0.0092592592)">
    <path d="M -27 54 L -9 0 L -27 -54 L 135 0 z"/>
   </g>
  </marker>
  <marker id="DefaultArrow4" markerUnits="strokeWidth" viewBox="0 0 1 1" markerWidth="1" markerHeight="1" overflow="visible" orient="auto">
   <!-- REF_ARROW_ROUNDED -->
   <g transform="scale(0.0092592592)">
    <path d="M -9,0 L -9,-45 C -9,-51.708 2.808,-56.580 9,-54 L 117,-9 C 120.916,-7.369 126.000,-4.242 126,0 C 126,4.242 120.916,7.369 117,9 L 9,54 C 2.808,56.580 -9,51.708 -9,45 z"/>
   </g>
  </marker>
  <marker id="DefaultArrow5" markerUnits="strokeWidth" viewBox="0 0 1 1" markerWidth="1" markerHeight="1" overflow="visible" orient="auto">
   <!-- REF_ARROW_SPOT -->
   <g transform="scale(0.0092592592)">
    <path d="M -54, 0 C -54,29.807 -29.807,54 0,54 C 29.807,54 54,29.807 54,0 C 54,-29.807 29.807,-54 0,-54 C -29.807,-54 -54,-29.807 -54,0 z"/>
   </g>
  </marker>
  <marker id="DefaultArrow6" markerUnits="strokeWidth" viewBox="0 0 1 1" markerWidth="1" markerHeight="1" overflow="visible" orient="auto">
   <!-- REF_ARROW_DIAMOND -->
   <g transform="scale(0.0092592592)">
    <path d="M -63,0 L 0,63 L 63,0 L 0,-63 z"/>
   </g>
  </marker>
  <marker id="DefaultArrow7" markerUnits="strokeWidth" viewBox="0 0 1 1" markerWidth="1" markerHeight="1" overflow="visible" orient="auto">
   <!-- REF_ARROW_FEATHER -->
   <g transform="scale(0.0092592592)">
    <path d="M 18,-54 L 108,-54 L 63,0 L 108,54 L 18, 54 L -36,0 z"/>
   </g>
  </marker>
  <marker id="DefaultArrow8" markerUnits="strokeWidth" viewBox="0 0 1 1" markerWidth="1" markerHeight="1" overflow="visible" orient="auto">
   <!-- REF_ARROW_FEATHER2 -->
   <g transform="scale(0.0092592592)">
    <path d="M -36,0 L 18,-54 L 54,-54 L 18,-18 L 27,-18 L 63,-54 L 99,-54 L 63,-18 L 72,-18 L 108,-54 L 144,-54 L 90,0 L 144,54 L 108,54 L 72,18 L 63,18 L 99,54 L 63,54 L 27,18 L 18,18 L 54,54 L 18,54 z"/>
   </g>
  </marker>
  <marker id="DefaultArrow9" markerUnits="strokeWidth" viewBox="0 0 1 1" markerWidth="1" markerHeight="1" overflow="visible" orient="auto">
   <!-- REF_ARROW_HOLLOWDIAMOND -->
   <g transform="scale(0.0092592592)">
    <path d="M 0,45 L -45,0 L 0, -45 L 45, 0 z M 0, 63 L-63, 0 L 0, -63 L 63, 0 z"/>
   </g>
  </marker>
  <filter id="StainedFilter">
   <feBlend mode="multiply" in2="BackgroundImage" in="SourceGraphic" result="blend"/>
   <feComposite in="blend" in2="SourceAlpha" operator="in" result="comp"/>
  </filter>
  <filter id="BleachFilter">
   <feBlend mode="screen" in2="BackgroundImage" in="SourceGraphic" result="blend"/>
   <feComposite in="blend" in2="SourceAlpha" operator="in" result="comp"/>
  </filter>
  <filter id="InvertTransparencyBitmapFilter">
   <feComponentTransfer>
    <feFuncR type="gamma" amplitude="1.055" exponent=".416666666" offset="-0.055"/>
    <feFuncG type="gamma" amplitude="1.055" exponent=".416666666" offset="-0.055"/>
    <feFuncB type="gamma" amplitude="1.055" exponent=".416666666" offset="-0.055"/>
   </feComponentTransfer>
   <feComponentTransfer>
    <feFuncR type="linear" slope="-1" intercept="1"/>
    <feFuncG type="linear" slope="-1" intercept="1"/>
    <feFuncB type="linear" slope="-1" intercept="1"/>
    <feFuncA type="linear" slope="1" intercept="0"/>
   </feComponentTransfer>
   <feComponentTransfer>
    <feFuncR type="gamma" amplitude="1" exponent="2.4" offset="0"/>
    <feFuncG type="gamma" amplitude="1" exponent="2.4" offset="0"/>
    <feFuncB type="gamma" amplitude="1" exponent="2.4" offset="0"/>
   </feComponentTransfer>
  </filter>
 </defs>
 <g id="Document" fill="none" stroke="black" font-family="Times New Roman" font-size="16" transform="scale(1 -1)">
  <g id="Spread" transform="translate(0 -42.75)">
   <g id="Layer 1">
    <g id="Group" fill="#ffffff" stroke-linejoin="round" stroke-linecap="round" stroke="none">
     <path d="M 32.811,0.307 C 30.976,1.039 30.231,4.331 33.912,4.331 C 34.829,4.331 35.188,3.813 33.912,3.6 C 32.811,3.417 32.444,2.685 32.628,2.137 C 33.321,0.835 35.931,1.223 37.031,2.685 C 37.564,3.764 36.847,5.482 35.196,5.796 C 31.343,6.527 28.908,2.215 21.435,4.697 C 18.683,5.613 16.114,8.906 18.499,14.577 C 17.032,13.662 14.157,12.999 11.894,12.747 C 6.939,12.198 0.395,12.869 0.01,19.817 C -0.216,23.908 3.271,26.285 5.104,26.651 C 9.12,27.451 11.715,25.33 10.977,21.894 C 10.426,19.333 5.289,18.97 5.289,21.711 C 5.289,22.626 6.573,23.908 7.674,23.358 C 7.886,23.139 8.029,22.852 7.124,22.626 C 6.389,22.444 6.206,22.26 6.389,21.711 C 6.871,20.854 8.959,21.163 9.325,22.078 C 9.767,23.163 9.325,24.822 7.124,24.822 C 4.961,24.898 2.169,22.81 2.719,20.066 C 3.398,17.05 7.857,16.224 11.344,16.589 C 13.161,16.552 15.38,17.503 16.481,18.419 C 16.635,18.689 16.793,18.922 16.297,19.333 C 14.096,21.163 12.111,23.37 11.527,25.553 C 10.793,28.298 11.682,31.208 12.077,33.969 C 12.261,35.249 12.623,38.908 9.325,38.908 C 7.674,38.908 6.957,35.709 9.142,35.982 C 10.609,36.164 10.676,35.708 10.242,35.432 C 9.247,34.799 7.144,34.904 6.573,35.798 C 5.289,37.811 6.756,39.824 8.407,40.372 C 10.847,41.048 14.696,39.995 14.462,35.798 C 14.279,32.505 13.159,29.927 14.83,26.834 C 16.097,24.487 19.867,23.566 20.142,24.597 C 19.917,26.363 15.564,27.9 15.564,33.604 C 15.564,38.652 19.674,42.75 24.738,42.75 C 29.801,42.75 33.912,38.652 33.912,33.604 C 33.912,33.32 33.899,33.039 33.873,32.761 C 33.476,27.731 29.53,26.267 29.326,24.586 C 29.47,24.038 31.422,23.81 32.261,24.273 C 33.912,25.185 34.532,26.825 34.646,29.395 C 34.795,32.746 32.194,37.389 35.013,40.554 C 37.581,42.932 40.968,43.003 43.086,41.105 C 44.921,39.458 44.737,35.798 41.802,35.249 C 39.869,34.888 37.214,37.628 39.967,38.908 C 40.517,39.091 39.996,37.906 40.151,37.446 C 40.334,36.896 40.884,36.347 41.802,36.896 C 42.586,37.385 43.183,38.652 42.169,39.64 C 40.204,41.554 37.072,40.032 36.298,38.176 C 35.38,35.982 37.447,33.176 37.949,30.676 C 38.499,27.933 38.511,22.766 34.463,19.881 C 33.178,18.968 29.692,18.236 32.078,15.309 C 33.733,13.182 39.45,14.217 39.967,17.139 C 40.517,20.248 38.687,21.194 39.233,25.004 C 39.6,27.566 40.559,30.092 45.104,29.395 C 47.49,29.029 48.835,26.255 48.04,24.273 C 47.674,23.358 46.205,22.626 44.921,22.626 C 44.554,22.626 43.93,23.15 44.554,23.358 C 45.655,23.724 46.443,24.283 46.572,25.188 C 46.756,26.468 45.246,28.386 43.269,27.566 C 41.068,26.651 41.636,24.21 42.352,21.711 C 43.836,16.538 42.352,13.113 39.416,11.467 C 35.617,9.337 28.218,9.862 26.39,12.747 C 25.658,13.9 24.196,13.472 23.637,12.747 C 22.48,11.246 22.016,9.106 25.105,7.26 C 26.94,6.161 30.733,7.826 33.545,7.991 C 36.664,8.174 40.01,6.849 39.233,3.235 C 38.683,0.673 35.181,-0.638 32.811,0.307 Z M 28.617,32.654 C 28.617,33.362 28.041,33.935 27.333,33.935 C 26.624,33.935 26.048,33.362 26.048,32.654 C 26.048,31.947 26.624,31.374 27.333,31.374 C 28.041,31.374 28.617,31.947 28.617,32.654 Z M 24.371,33.203 C 24.371,34.112 23.631,34.849 22.72,34.849 C 21.808,34.849 21.068,34.112 21.068,33.203 C 21.068,32.294 21.808,31.557 22.72,31.557 C 23.631,31.557 24.371,32.294 24.371,33.203 Z" stroke-width="0.183" marker-start="none" marker-end="none" stroke-miterlimit="79.8403193612775"/>
     <g id="Group_1" fill-rule="nonzero" stroke-width="0.914" stroke-miterlimit="79.8403193612775">
      <g id="Group_2">
       <path d="M 54.548,12.816 L 55.743,16.019 C 57.634,14.784 59.158,14.168 60.312,14.168 C 62.406,14.168 63.453,15.047 63.453,16.803 C 63.453,18.06 62.442,19.14 60.42,20.041 C 58.86,20.753 57.81,21.292 57.269,21.66 C 56.727,22.027 56.257,22.446 55.859,22.914 C 55.461,23.383 55.163,23.882 54.966,24.41 C 54.771,24.937 54.673,25.504 54.672,26.109 C 54.673,27.674 55.244,28.896 56.386,29.774 C 57.528,30.652 59.021,31.091 60.865,31.091 C 62.258,31.091 64.012,30.652 66.13,29.774 L 65.166,26.642 C 63.821,27.709 62.471,28.244 61.115,28.244 C 60.305,28.244 59.625,28.054 59.071,27.673 C 58.518,27.295 58.242,26.815 58.242,26.233 C 58.242,25.011 58.938,24.087 60.33,23.457 L 62.757,22.354 C 64.244,21.677 65.327,20.907 66.005,20.041 C 66.683,19.175 67.022,18.089 67.022,16.785 C 67.022,15.077 66.421,13.739 65.22,12.771 C 64.019,11.804 62.352,11.322 60.223,11.322 C 58.212,11.322 56.321,11.82 54.548,12.816 Z" marker-start="none" marker-end="none"/>
       <path d="M 86.689,20.877 L 72.912,20.877 C 72.912,18.647 73.525,16.932 74.75,15.735 C 75.833,14.691 77.224,14.168 78.926,14.168 C 80.865,14.168 82.483,14.732 83.78,15.859 L 85.208,13.42 C 84.685,12.899 83.881,12.448 82.799,12.068 C 81.442,11.571 79.932,11.322 78.265,11.322 C 75.863,11.322 73.822,12.134 72.144,13.759 C 70.276,15.55 69.342,17.959 69.342,20.984 C 69.342,24.128 70.3,26.648 72.215,28.547 C 73.929,30.243 75.958,31.091 78.301,31.091 C 81.026,31.091 83.161,30.326 84.708,28.796 C 86.208,27.324 86.957,25.373 86.957,22.941 C 86.957,22.194 86.867,21.507 86.689,20.877 Z M 78.462,28.244 C 76.951,28.244 75.684,27.757 74.661,26.785 C 73.685,25.86 73.132,24.709 73.001,23.333 L 83.584,23.333 C 83.584,24.697 83.156,25.836 82.299,26.749 C 81.359,27.745 80.081,28.244 78.462,28.244 Z" marker-start="none" marker-end="none"/>
       <path d="M 90.793,17.069 L 90.793,38.546 L 94.184,38.546 L 94.184,17.638 C 94.184,16.619 94.48,15.814 95.068,15.228 C 95.657,14.64 96.428,14.347 97.379,14.346 L 97.379,11.322 C 92.989,11.322 90.794,13.237 90.793,17.069 Z" marker-start="none" marker-end="none"/>
       <path d="M 117.403,20.877 L 103.626,20.877 C 103.626,18.647 104.239,16.932 105.464,15.735 C 106.547,14.691 107.938,14.168 109.64,14.168 C 111.579,14.168 113.197,14.732 114.494,15.859 L 115.922,13.42 C 115.398,12.899 114.595,12.448 113.513,12.068 C 112.156,11.571 110.645,11.322 108.979,11.322 C 106.576,11.322 104.536,12.134 102.858,13.759 C 100.99,15.55 100.056,17.959 100.056,20.984 C 100.056,24.128 101.014,26.648 102.929,28.547 C 104.643,30.243 106.672,31.091 109.015,31.091 C 111.74,31.091 113.875,30.326 115.422,28.796 C 116.922,27.324 117.671,25.373 117.671,22.941 C 117.671,22.194 117.581,21.507 117.403,20.877 Z M 109.176,28.244 C 107.665,28.244 106.398,27.757 105.375,26.785 C 104.399,25.86 103.846,24.709 103.715,23.333 L 114.298,23.333 C 114.298,24.697 113.87,25.836 113.013,26.749 C 112.073,27.745 110.795,28.244 109.176,28.244 Z" marker-start="none" marker-end="none"/>
       <path d="M 135.66,29.188 L 133.983,26.802 C 133.638,27.147 133.028,27.473 132.154,27.781 C 131.279,28.089 130.42,28.244 129.574,28.244 C 127.731,28.244 126.267,27.6 125.184,26.313 C 124.101,25.026 123.56,23.261 123.56,21.019 C 123.56,18.789 124.114,17.09 125.22,15.921 C 126.326,14.754 127.862,14.168 129.824,14.168 C 131.347,14.168 132.882,14.757 134.429,15.93 L 135.767,13.082 C 133.947,11.908 131.692,11.322 129.003,11.322 C 126.398,11.322 124.245,12.193 122.543,13.938 C 120.842,15.681 119.991,18.042 119.991,21.019 C 119.991,24.057 120.874,26.495 122.641,28.332 C 124.408,30.172 126.826,31.091 129.896,31.091 C 130.884,31.091 131.954,30.883 133.108,30.468 C 134.262,30.053 135.113,29.626 135.66,29.188 Z" marker-start="none" marker-end="none"/>
       <path d="M 140.55,28.065 L 138.338,28.065 L 138.338,30.735 L 140.55,30.735 L 140.55,34.722 L 143.941,36.02 L 143.941,30.735 L 149.188,30.735 L 149.188,28.065 L 143.941,28.065 L 143.941,18.6 C 143.941,16.998 144.212,15.859 144.753,15.183 C 145.295,14.507 146.166,14.168 147.367,14.168 C 148.236,14.168 149.134,14.388 150.062,14.827 L 150.562,11.856 C 149.158,11.499 147.618,11.322 145.94,11.322 C 144.429,11.322 143.152,11.882 142.112,13.003 C 141.07,14.124 140.55,15.538 140.55,17.247 L 140.55,28.065 Z" marker-start="none" marker-end="none"/>
       <path d="M 152.579,21.251 C 152.579,24.193 153.373,26.569 154.961,28.377 C 156.549,30.186 158.64,31.091 161.234,31.091 C 163.97,31.091 166.094,30.221 167.606,28.484 C 169.116,26.746 169.872,24.334 169.872,21.251 C 169.872,18.178 169.099,15.755 167.552,13.982 C 166.006,12.209 163.899,11.322 161.234,11.322 C 158.51,11.322 156.386,12.217 154.863,14.009 C 153.34,15.799 152.579,18.214 152.579,21.251 Z M 156.148,21.251 C 156.148,16.469 157.843,14.08 161.234,14.08 C 162.817,14.08 164.058,14.721 164.956,16.001 C 165.854,17.283 166.303,19.033 166.303,21.251 C 166.303,25.972 164.613,28.333 161.234,28.332 C 159.687,28.333 158.453,27.704 157.532,26.447 C 156.609,25.19 156.148,23.458 156.148,21.251 Z" marker-start="none" marker-end="none"/>
       <path d="M 176.833,12.727 L 176.833,4.204 L 173.441,4.204 L 173.441,30.735 L 176.833,30.735 L 176.833,29.169 C 178.117,30.45 179.67,31.091 181.491,31.091 C 184.203,31.091 186.315,30.249 187.826,28.564 C 189.337,26.879 190.093,24.412 190.093,21.162 C 190.093,18.266 189.332,15.903 187.808,14.072 C 186.285,12.237 184.084,11.322 181.205,11.322 C 180.397,11.322 179.531,11.464 178.609,11.748 C 177.686,12.034 177.095,12.36 176.833,12.727 Z M 176.833,26.624 L 176.833,15.521 C 177.047,15.2 177.499,14.896 178.189,14.604 C 178.879,14.314 179.551,14.168 180.205,14.168 C 184.417,14.168 186.524,16.54 186.524,21.286 C 186.524,23.695 186.024,25.457 185.025,26.572 C 184.025,27.686 182.425,28.244 180.224,28.244 C 179.748,28.244 179.165,28.078 178.474,27.745 C 177.785,27.413 177.238,27.04 176.833,26.624 Z" marker-start="none" marker-end="none"/>
       <path d="M 197.016,30.735 L 197.016,18.581 C 197.016,15.639 198.296,14.168 200.854,14.168 C 201.972,14.168 202.995,14.488 203.924,15.129 C 204.852,15.771 205.465,16.512 205.762,17.354 L 205.762,30.735 L 209.152,30.735 L 209.152,11.678 L 205.762,11.678 L 205.762,14.311 C 205.381,13.563 204.616,12.878 203.468,12.256 C 202.32,11.633 201.199,11.322 200.104,11.322 C 198.011,11.322 196.407,11.921 195.294,13.118 C 194.182,14.317 193.626,16.02 193.626,18.225 L 193.626,30.735 L 197.016,30.735 Z" marker-start="none" marker-end="none"/>
       <path d="M 212.526,12.816 L 213.721,16.019 C 215.613,14.784 217.136,14.168 218.29,14.168 C 220.384,14.168 221.431,15.047 221.431,16.803 C 221.431,18.06 220.42,19.14 218.398,20.041 C 216.839,20.753 215.788,21.292 215.247,21.66 C 214.705,22.027 214.235,22.446 213.837,22.914 C 213.439,23.383 213.141,23.882 212.944,24.41 C 212.749,24.937 212.651,25.504 212.65,26.109 C 212.651,27.674 213.222,28.896 214.364,29.774 C 215.507,30.652 216.999,31.091 218.843,31.091 C 220.236,31.091 221.991,30.652 224.109,29.774 L 223.145,26.642 C 221.799,27.709 220.449,28.244 219.093,28.244 C 218.284,28.244 217.603,28.054 217.049,27.673 C 216.496,27.295 216.22,26.815 216.22,26.233 C 216.22,25.011 216.916,24.087 218.308,23.457 L 220.735,22.354 C 222.222,21.677 223.305,20.907 223.983,20.041 C 224.661,19.175 225,18.089 225,16.785 C 225,15.077 224.4,13.739 223.198,12.771 C 221.997,11.804 220.331,11.322 218.201,11.322 C 216.191,11.322 214.299,11.82 212.526,12.816 Z" marker-start="none" marker-end="none"/>
      </g>
     </g>
    </g>
   </g>
  </g>
 </g>
</svg>
